%TF.GenerationSoftware,KiCad,Pcbnew,(6.0.10-0)*%
%TF.CreationDate,2023-02-08T17:30:19+03:00*%
%TF.ProjectId,EEEE2046_PCB_Template,45454545-3230-4343-965f-5043425f5465,rev?*%
%TF.SameCoordinates,Original*%
%TF.FileFunction,Copper,L1,Top*%
%TF.FilePolarity,Positive*%
%FSLAX46Y46*%
G04 Gerber Fmt 4.6, Leading zero omitted, Abs format (unit mm)*
G04 Created by KiCad (PCBNEW (6.0.10-0)) date 2023-02-08 17:30:19*
%MOMM*%
%LPD*%
G01*
G04 APERTURE LIST*
%TA.AperFunction,ComponentPad*%
%ADD10C,0.800000*%
%TD*%
%TA.AperFunction,ComponentPad*%
%ADD11C,6.400000*%
%TD*%
%TA.AperFunction,SMDPad,CuDef*%
%ADD12R,1.270000X2.540000*%
%TD*%
%TA.AperFunction,ComponentPad*%
%ADD13C,2.000000*%
%TD*%
%TA.AperFunction,ComponentPad*%
%ADD14R,2.600000X2.600000*%
%TD*%
%TA.AperFunction,ComponentPad*%
%ADD15C,2.600000*%
%TD*%
%TA.AperFunction,ComponentPad*%
%ADD16O,3.000000X2.500000*%
%TD*%
%TA.AperFunction,ComponentPad*%
%ADD17R,2.400000X2.400000*%
%TD*%
%TA.AperFunction,ComponentPad*%
%ADD18C,2.400000*%
%TD*%
%TA.AperFunction,ComponentPad*%
%ADD19O,2.500000X3.000000*%
%TD*%
%TA.AperFunction,ComponentPad*%
%ADD20O,2.000000X4.000000*%
%TD*%
%TA.AperFunction,ComponentPad*%
%ADD21O,4.000000X2.000000*%
%TD*%
%TA.AperFunction,ComponentPad*%
%ADD22C,1.600000*%
%TD*%
%TA.AperFunction,ComponentPad*%
%ADD23R,1.600000X1.600000*%
%TD*%
%TA.AperFunction,ComponentPad*%
%ADD24O,1.600000X1.600000*%
%TD*%
%TA.AperFunction,SMDPad,CuDef*%
%ADD25R,5.080000X5.080000*%
%TD*%
%TA.AperFunction,ComponentPad*%
%ADD26C,2.500000*%
%TD*%
%TA.AperFunction,ComponentPad*%
%ADD27C,1.400000*%
%TD*%
%TA.AperFunction,ComponentPad*%
%ADD28O,1.800000X3.000000*%
%TD*%
%TA.AperFunction,ComponentPad*%
%ADD29O,2.400000X1.600000*%
%TD*%
%TA.AperFunction,ComponentPad*%
%ADD30R,2.400000X1.600000*%
%TD*%
%TA.AperFunction,ViaPad*%
%ADD31C,0.800000*%
%TD*%
%TA.AperFunction,ViaPad*%
%ADD32C,4.000000*%
%TD*%
%TA.AperFunction,Conductor*%
%ADD33C,2.390000*%
%TD*%
%TA.AperFunction,Conductor*%
%ADD34C,0.780000*%
%TD*%
%TA.AperFunction,Conductor*%
%ADD35C,4.390000*%
%TD*%
G04 APERTURE END LIST*
D10*
%TO.P,H2,1*%
%TO.N,N/C*%
X38544800Y-27686000D03*
X42641856Y-25988944D03*
X40944800Y-30086000D03*
D11*
X40944800Y-27686000D03*
D10*
X43344800Y-27686000D03*
X39247744Y-25988944D03*
X40944800Y-25286000D03*
X39247744Y-29383056D03*
X42641856Y-29383056D03*
%TD*%
%TO.P,H4,1*%
%TO.N,N/C*%
X40436800Y-114440000D03*
X40436800Y-119240000D03*
X38739744Y-115142944D03*
X38036800Y-116840000D03*
X42133856Y-115142944D03*
X38739744Y-118537056D03*
D11*
X40436800Y-116840000D03*
D10*
X42133856Y-118537056D03*
X42836800Y-116840000D03*
%TD*%
D12*
%TO.P,U15,1,AA*%
%TO.N,Net-(U14-Pad1)*%
X111963200Y-114071400D03*
D13*
X111963200Y-115341400D03*
X111963200Y-112801400D03*
%TO.P,U15,2,AB*%
%TO.N,GNDD*%
X76403200Y-112801400D03*
D12*
X76403200Y-114071400D03*
D13*
X76403200Y-115341400D03*
D12*
%TO.P,U15,3,SA*%
%TO.N,Net-(U15-Pad3)*%
X111963200Y-108991400D03*
D13*
X111963200Y-110261400D03*
X111963200Y-107721400D03*
%TO.P,U15,4,SB*%
%TO.N,/PWM_COM_A*%
X111963200Y-105181400D03*
X111963200Y-102641400D03*
D12*
X111963200Y-103911400D03*
D13*
%TO.P,U15,5,SC*%
%TO.N,Net-(U15-Pad5)*%
X76403200Y-110261400D03*
D12*
X76403200Y-108991400D03*
D13*
X76403200Y-107721400D03*
%TO.P,U15,6,SD*%
%TO.N,/PWM_COM_B*%
X76403200Y-102641400D03*
X76403200Y-105181400D03*
D12*
X76403200Y-103911400D03*
%TD*%
D14*
%TO.P,U6,1,+*%
%TO.N,/Rectifier_DC(+)*%
X60960000Y-43180000D03*
D15*
%TO.P,U6,2*%
%TO.N,/VAC(-)*%
X60960000Y-32780000D03*
%TO.P,U6,3,-*%
%TO.N,/PWM_COM_B*%
X50560000Y-32780000D03*
%TO.P,U6,4*%
%TO.N,/VAC(+)*%
X50560000Y-43180000D03*
%TD*%
D16*
%TO.P,U17,1,K*%
%TO.N,/Rectifier_DC(+)*%
X85430000Y-58029200D03*
X87716000Y-58029200D03*
%TO.P,U17,2,A*%
%TO.N,Net-(U16-Pad2)*%
X87716000Y-63109200D03*
X85430000Y-63109200D03*
%TD*%
D17*
%TO.P,U11,1*%
%TO.N,/Rectifier_DC(+)*%
X73660000Y-43180000D03*
D18*
%TO.P,U11,2*%
%TO.N,/PWM_COM_B*%
X73660000Y-35680000D03*
%TD*%
D19*
%TO.P,U31,1,K*%
%TO.N,Net-(U31-Pad1)*%
X182575200Y-74558800D03*
X182575200Y-76844800D03*
%TO.P,U31,2,A*%
%TO.N,/Transformer_Out(+)*%
X177495200Y-74558800D03*
X177495200Y-76844800D03*
%TD*%
D20*
%TO.P,U42,*%
%TO.N,*%
X130891200Y-119286800D03*
D21*
%TO.P,U42,1,Pin_1*%
%TO.N,GNDD*%
X135991200Y-114286800D03*
D20*
%TO.P,U42,2,Pin_2*%
%TO.N,/PWM_Input*%
X141091200Y-119286800D03*
%TD*%
D17*
%TO.P,U12,1*%
%TO.N,/Rectifier_DC(+)*%
X93980000Y-43180000D03*
D18*
%TO.P,U12,2*%
%TO.N,/PWM_COM_B*%
X93980000Y-35680000D03*
%TD*%
D22*
%TO.P,U14,1*%
%TO.N,Net-(U14-Pad1)*%
X118556400Y-112776000D03*
X119806400Y-112776000D03*
%TO.P,U14,2*%
%TO.N,/PWM_Out*%
X123556400Y-112776000D03*
X122306400Y-112776000D03*
%TD*%
D19*
%TO.P,U33,1,K*%
%TO.N,Net-(U31-Pad1)*%
X177088800Y-52085600D03*
X177088800Y-54371600D03*
%TO.P,U33,2,A*%
%TO.N,/Converter_Out(-)*%
X182168800Y-52085600D03*
X182168800Y-54371600D03*
%TD*%
D10*
%TO.P,H2,1*%
%TO.N,N/C*%
X253922102Y-27722102D03*
X258019158Y-26025046D03*
X256322102Y-30122102D03*
D11*
X256322102Y-27722102D03*
D10*
X258722102Y-27722102D03*
X254625046Y-26025046D03*
X256322102Y-25322102D03*
X254625046Y-29419158D03*
X258019158Y-29419158D03*
%TD*%
D23*
%TO.P,U36,1*%
%TO.N,/Converter_Out(+)*%
X188772723Y-31394400D03*
X188101786Y-29794400D03*
D22*
%TO.P,U36,2*%
%TO.N,/Converter_Out(-)*%
X191943660Y-32994400D03*
X191272723Y-31394400D03*
%TD*%
%TO.P,U25,1*%
%TO.N,/PWM_OUT_B*%
X70269200Y-103182800D03*
D24*
%TO.P,U25,2*%
%TO.N,Net-(U19-Pad1)*%
X60109200Y-103182800D03*
%TD*%
D10*
%TO.P,H4,1*%
%TO.N,N/C*%
X256322102Y-114222102D03*
X256322102Y-119022102D03*
X254625046Y-114925046D03*
X253922102Y-116622102D03*
X258019158Y-114925046D03*
X254625046Y-118319158D03*
D11*
X256322102Y-116622102D03*
D10*
X258019158Y-118319158D03*
X258722102Y-116622102D03*
%TD*%
D13*
%TO.P,U34,*%
%TO.N,*%
X253796800Y-83210400D03*
X253796800Y-85750400D03*
X251256800Y-42570400D03*
X253796800Y-42570400D03*
D25*
X252526800Y-43840400D03*
D13*
X251256800Y-83210400D03*
X253796800Y-45110400D03*
X251256800Y-45110400D03*
D25*
X252526800Y-84480400D03*
D13*
X251256800Y-85750400D03*
D25*
%TO.P,U34,1,1*%
%TO.N,/Converter_Out(+)*%
X201726800Y-43840400D03*
D13*
X200456800Y-45110400D03*
X200456800Y-42570400D03*
X202996800Y-42570400D03*
X202996800Y-45110400D03*
%TO.P,U34,2,2*%
%TO.N,Net-(U31-Pad1)*%
X202996800Y-83210400D03*
X202996800Y-85750400D03*
X200456800Y-83210400D03*
D25*
X201726800Y-84480400D03*
D13*
X200456800Y-85750400D03*
%TD*%
D23*
%TO.P,U21,1,K*%
%TO.N,Net-(U18-Pad1)*%
X98628200Y-88036400D03*
D24*
%TO.P,U21,2,A*%
%TO.N,/PWM_COM_A*%
X98628200Y-95656400D03*
%TD*%
D26*
%TO.P,U44,1,Pin_1*%
%TO.N,/Converter_Out(+)*%
X219390600Y-27541600D03*
%TO.P,U44,2,Pin_2*%
%TO.N,/Converter_Out(-)*%
X214310600Y-27541600D03*
%TD*%
D27*
%TO.P,U7,1,1*%
%TO.N,/PWM_OUT_B*%
X60228800Y-83769200D03*
%TO.P,U7,2,2*%
%TO.N,/PWM_COM_B*%
X57688800Y-83769200D03*
%TD*%
D22*
%TO.P,U28,1*%
%TO.N,/PWM_COM_B*%
X60045600Y-95504000D03*
D24*
%TO.P,U28,2*%
%TO.N,/PWM_OUT_B*%
X70205600Y-95504000D03*
%TD*%
D22*
%TO.P,U39,1*%
%TO.N,VDD*%
X149555200Y-105463400D03*
X148305200Y-105463400D03*
%TO.P,U39,2*%
%TO.N,GNDD*%
X152055200Y-105463400D03*
X153305200Y-105463400D03*
%TD*%
%TO.P,U18,1*%
%TO.N,Net-(U18-Pad1)*%
X92913200Y-87822400D03*
X92913200Y-89072400D03*
%TO.P,U18,2*%
%TO.N,Net-(U15-Pad3)*%
X92913200Y-91572400D03*
X92913200Y-92822400D03*
%TD*%
%TO.P,U37,1*%
%TO.N,VDD*%
X137343200Y-96418400D03*
X138593200Y-96418400D03*
%TO.P,U37,2*%
%TO.N,GNDD*%
X133593200Y-96418400D03*
X134843200Y-96418400D03*
%TD*%
D13*
%TO.P,U26,1,AA*%
%TO.N,/PWM_COM_A*%
X111125000Y-33020000D03*
X108585000Y-35560000D03*
D25*
X109855000Y-34290000D03*
D13*
X108585000Y-33020000D03*
X111125000Y-35560000D03*
D25*
%TO.P,U26,2,AB*%
%TO.N,Net-(U16-Pad2)*%
X109855000Y-74930000D03*
D13*
X111125000Y-73660000D03*
X108585000Y-76200000D03*
X108585000Y-73660000D03*
X111125000Y-76200000D03*
%TO.P,U26,3,SA*%
%TO.N,/Converter_Out(-)*%
X161925000Y-35560000D03*
X159385000Y-35560000D03*
X161925000Y-33020000D03*
X159385000Y-33020000D03*
D25*
X160655000Y-34290000D03*
D13*
%TO.P,U26,4,SB*%
%TO.N,/Transformer_Out(+)*%
X159385000Y-73660000D03*
X161925000Y-76200000D03*
X161925000Y-73660000D03*
D25*
X160655000Y-74930000D03*
D13*
X159385000Y-76200000D03*
%TD*%
D27*
%TO.P,U10,1,1*%
%TO.N,/Transformer_Out(+)*%
X161899600Y-86207600D03*
%TO.P,U10,2,2*%
%TO.N,/Converter_Out(-)*%
X164439600Y-86207600D03*
%TD*%
D22*
%TO.P,U19,1*%
%TO.N,Net-(U19-Pad1)*%
X60096400Y-109880400D03*
X58846400Y-109880400D03*
%TO.P,U19,2*%
%TO.N,Net-(U15-Pad5)*%
X62596400Y-109880400D03*
X63846400Y-109880400D03*
%TD*%
D27*
%TO.P,U3,1,1*%
%TO.N,/PWM_OUT_A*%
X87610000Y-83769200D03*
%TO.P,U3,2,2*%
%TO.N,/PWM_COM_A*%
X85070000Y-83769200D03*
%TD*%
D23*
%TO.P,U38,1*%
%TO.N,/Converter_Out(+)*%
X201472723Y-31394400D03*
X200801786Y-29794400D03*
D22*
%TO.P,U38,2*%
%TO.N,/Converter_Out(-)*%
X203972723Y-31394400D03*
X204643660Y-32994400D03*
%TD*%
D23*
%TO.P,U40,1*%
%TO.N,/Converter_Out(+)*%
X176072723Y-31394400D03*
X175401786Y-29794400D03*
D22*
%TO.P,U40,2*%
%TO.N,/Converter_Out(-)*%
X179243660Y-32994400D03*
X178572723Y-31394400D03*
%TD*%
D28*
%TO.P,U16,1,G*%
%TO.N,/PWM_OUT_B*%
X61493400Y-70535800D03*
X61493400Y-73075800D03*
%TO.P,U16,2,D*%
%TO.N,Net-(U16-Pad2)*%
X58953400Y-70535800D03*
X58953400Y-73075800D03*
%TO.P,U16,3,S*%
%TO.N,/PWM_COM_B*%
X56413400Y-73075800D03*
X56413400Y-70535800D03*
%TD*%
D22*
%TO.P,U24,1*%
%TO.N,/PWM_OUT_A*%
X113233200Y-88036400D03*
D24*
%TO.P,U24,2*%
%TO.N,Net-(U18-Pad1)*%
X103073200Y-88036400D03*
%TD*%
D23*
%TO.P,U22,1,K*%
%TO.N,Net-(U19-Pad1)*%
X52710400Y-103124000D03*
D24*
%TO.P,U22,2,A*%
%TO.N,/PWM_COM_B*%
X52710400Y-95504000D03*
%TD*%
D22*
%TO.P,U27,1*%
%TO.N,/PWM_COM_A*%
X103073200Y-95656400D03*
D24*
%TO.P,U27,2*%
%TO.N,/PWM_OUT_A*%
X113233200Y-95656400D03*
%TD*%
D26*
%TO.P,U45,1,Pin_1*%
%TO.N,/Converter_Out(+)*%
X235519600Y-27541600D03*
%TO.P,U45,2,Pin_2*%
%TO.N,/Converter_Out(-)*%
X230439600Y-27541600D03*
%TD*%
D27*
%TO.P,U9,1,1*%
%TO.N,/Rectifier_DC(+)*%
X55453600Y-50520600D03*
%TO.P,U9,2,2*%
%TO.N,/PWM_COM_B*%
X52913600Y-50520600D03*
%TD*%
D26*
%TO.P,U41,1,Pin_1*%
%TO.N,VDD*%
X148325200Y-116603400D03*
%TO.P,U41,2,Pin_2*%
%TO.N,GNDD*%
X153405200Y-116603400D03*
%TD*%
D16*
%TO.P,U23,1,K*%
%TO.N,/PWM_COM_A*%
X56982000Y-58537200D03*
X59268000Y-58537200D03*
%TO.P,U23,2,A*%
%TO.N,/PWM_COM_B*%
X59268000Y-63617200D03*
X56982000Y-63617200D03*
%TD*%
D29*
%TO.P,U5,8,NC*%
%TO.N,unconnected-(U5-Pad8)*%
X118760400Y-106924000D03*
%TO.P,U5,7,~{OUT_A}*%
%TO.N,unconnected-(U5-Pad7)*%
X118760400Y-104384000D03*
%TO.P,U5,6,VDD*%
%TO.N,VDD*%
X118760400Y-101844000D03*
%TO.P,U5,5,OUT_B*%
%TO.N,/PWM_Out*%
X118760400Y-99304000D03*
%TO.P,U5,4,IN_B*%
%TO.N,/PWM_Input*%
X126380400Y-99304000D03*
%TO.P,U5,3,GND*%
%TO.N,GNDD*%
X126380400Y-101844000D03*
%TO.P,U5,2,IN_A*%
%TO.N,unconnected-(U5-Pad2)*%
X126380400Y-104384000D03*
D30*
%TO.P,U5,1,NC*%
%TO.N,unconnected-(U5-Pad1)*%
X126380400Y-106924000D03*
%TD*%
D27*
%TO.P,U1,1,1*%
%TO.N,/PWM_Out*%
X122295600Y-119227600D03*
%TO.P,U1,2,2*%
%TO.N,GNDD*%
X124835600Y-119227600D03*
%TD*%
D26*
%TO.P,U43,1,Pin_1*%
%TO.N,/VAC(-)*%
X41664000Y-38394000D03*
%TO.P,U43,2,Pin_2*%
%TO.N,/VAC(+)*%
X41664000Y-43474000D03*
%TD*%
D28*
%TO.P,U20,1,G*%
%TO.N,/PWM_OUT_A*%
X89306400Y-70408800D03*
X89306400Y-72948800D03*
%TO.P,U20,2,D*%
%TO.N,/Rectifier_DC(+)*%
X86766400Y-72948800D03*
X86766400Y-70408800D03*
%TO.P,U20,3,S*%
%TO.N,/PWM_COM_A*%
X84226400Y-70408800D03*
X84226400Y-72948800D03*
%TD*%
D31*
%TO.N,/PWM_COM_B*%
X53187600Y-35407600D03*
D32*
%TO.N,/Converter_Out(-)*%
X182219600Y-63855600D03*
%TD*%
D33*
%TO.N,VDD*%
X137343200Y-96418400D02*
X137343200Y-95287030D01*
X137343200Y-95287030D02*
X136279570Y-94223400D01*
X136279570Y-94223400D02*
X118628600Y-94223400D01*
X118628600Y-94223400D02*
X115722400Y-97129600D01*
X115722400Y-97129600D02*
X115722400Y-101396800D01*
X115722400Y-101396800D02*
X116169600Y-101844000D01*
X116169600Y-101844000D02*
X118760400Y-101844000D01*
X138593200Y-96418400D02*
X139260200Y-96418400D01*
X139260200Y-96418400D02*
X148305200Y-105463400D01*
X148325200Y-116603400D02*
X148325200Y-105483400D01*
X148325200Y-105483400D02*
X148305200Y-105463400D01*
%TO.N,/PWM_OUT_A*%
X89306400Y-72948800D02*
X89306400Y-82072800D01*
X89306400Y-82072800D02*
X87610000Y-83769200D01*
%TO.N,/PWM_COM_B*%
X56413400Y-73075800D02*
X56413400Y-82493800D01*
X56413400Y-82493800D02*
X57688800Y-83769200D01*
%TO.N,Net-(U14-Pad1)*%
X111963200Y-112801400D02*
X118531000Y-112801400D01*
X118531000Y-112801400D02*
X118556400Y-112776000D01*
%TO.N,Net-(U15-Pad3)*%
X97764600Y-107721400D02*
X92862400Y-102819200D01*
X111963200Y-107721400D02*
X97764600Y-107721400D01*
X92862400Y-102819200D02*
X92913200Y-102768400D01*
X92913200Y-102768400D02*
X92913200Y-92822400D01*
%TO.N,/PWM_COM_A*%
X103073200Y-95656400D02*
X103073200Y-100126800D01*
X105587800Y-102641400D02*
X111963200Y-102641400D01*
X103073200Y-100126800D02*
X105587800Y-102641400D01*
X98628200Y-95656400D02*
X103073200Y-95656400D01*
%TO.N,Net-(U18-Pad1)*%
X98628200Y-88036400D02*
X93127200Y-88036400D01*
X93127200Y-88036400D02*
X92913200Y-87822400D01*
X103073200Y-88036400D02*
X98628200Y-88036400D01*
%TO.N,/PWM_OUT_A*%
X113233200Y-88036400D02*
X113233200Y-95656400D01*
X113233200Y-88036400D02*
X113233200Y-85242400D01*
X113233200Y-85242400D02*
X111760000Y-83769200D01*
X111760000Y-83769200D02*
X87610000Y-83769200D01*
%TO.N,Net-(U15-Pad5)*%
X63846400Y-109880400D02*
X76022200Y-109880400D01*
X76022200Y-109880400D02*
X76403200Y-110261400D01*
%TO.N,Net-(U19-Pad1)*%
X60109200Y-103182800D02*
X60109200Y-109867600D01*
X60109200Y-109867600D02*
X60096400Y-109880400D01*
%TO.N,/PWM_COM_B*%
X52710400Y-95504000D02*
X60045600Y-95504000D01*
%TO.N,Net-(U19-Pad1)*%
X52710400Y-103124000D02*
X60050400Y-103124000D01*
X60050400Y-103124000D02*
X60109200Y-103182800D01*
%TO.N,/PWM_OUT_B*%
X70205600Y-95504000D02*
X70205600Y-103119200D01*
X70205600Y-103119200D02*
X70269200Y-103182800D01*
%TO.N,/PWM_COM_B*%
X60045600Y-95504000D02*
X60045600Y-91186000D01*
X60045600Y-91186000D02*
X57688800Y-88829200D01*
X57688800Y-88829200D02*
X57688800Y-83769200D01*
D34*
X56982000Y-63617200D02*
X56982000Y-69967200D01*
X56982000Y-69967200D02*
X56413400Y-70535800D01*
%TO.N,/PWM_COM_A*%
X59268000Y-58537200D02*
X72354800Y-58537200D01*
X72354800Y-58537200D02*
X84226400Y-70408800D01*
%TO.N,Net-(U16-Pad2)*%
X87716000Y-63109200D02*
X98034200Y-63109200D01*
X98034200Y-63109200D02*
X108585000Y-73660000D01*
%TO.N,/Rectifier_DC(+)*%
X84668000Y-58029200D02*
X81737200Y-60960000D01*
X86766400Y-70241622D02*
X86766400Y-70408800D01*
X85430000Y-58029200D02*
X84668000Y-58029200D01*
X81737200Y-60960000D02*
X81737200Y-65212422D01*
X81737200Y-65212422D02*
X86766400Y-70241622D01*
X93980000Y-43180000D02*
X93980000Y-51765200D01*
X93980000Y-51765200D02*
X87716000Y-58029200D01*
X60960000Y-43180000D02*
X60960000Y-47599600D01*
X58039000Y-50520600D02*
X55453600Y-50520600D01*
X60960000Y-47599600D02*
X58039000Y-50520600D01*
X73660000Y-43180000D02*
X93980000Y-43180000D01*
X60960000Y-43180000D02*
X73660000Y-43180000D01*
%TO.N,/VAC(+)*%
X41664000Y-43474000D02*
X50266000Y-43474000D01*
X50266000Y-43474000D02*
X50560000Y-43180000D01*
%TO.N,/VAC(-)*%
X41664000Y-38394000D02*
X55346000Y-38394000D01*
X55346000Y-38394000D02*
X60960000Y-32780000D01*
%TO.N,/PWM_COM_B*%
X50560000Y-32780000D02*
X53187600Y-35407600D01*
D35*
%TO.N,/Converter_Out(-)*%
X166210200Y-79865000D02*
X166210200Y-84538600D01*
X166210200Y-84538600D02*
X165506400Y-85242400D01*
X182219600Y-63855600D02*
X166210200Y-79865000D01*
%TO.N,/Converter_Out(+)*%
X217830400Y-42570400D02*
X232613200Y-42570400D01*
X232613200Y-42570400D02*
X235519600Y-39664000D01*
X235519600Y-39664000D02*
X235519600Y-27541600D01*
X202996800Y-42570400D02*
X217830400Y-42570400D01*
X217830400Y-42570400D02*
X219390600Y-41010200D01*
X219390600Y-41010200D02*
X219390600Y-27541600D01*
X200456800Y-42570400D02*
X200456800Y-31715323D01*
X200456800Y-31715323D02*
X200777723Y-31394400D01*
X200801786Y-29794400D02*
X199206786Y-28199400D01*
X199206786Y-28199400D02*
X189696786Y-28199400D01*
X189696786Y-28199400D02*
X188101786Y-29794400D01*
X175401786Y-29794400D02*
X176996786Y-28199400D01*
X176996786Y-28199400D02*
X186506786Y-28199400D01*
X186506786Y-28199400D02*
X188101786Y-29794400D01*
%TD*%
M02*
