%TF.GenerationSoftware,KiCad,Pcbnew,(6.0.10-0)*%
%TF.CreationDate,2023-02-08T17:30:20+03:00*%
%TF.ProjectId,EEEE2046_PCB_Template,45454545-3230-4343-965f-5043425f5465,rev?*%
%TF.SameCoordinates,Original*%
%TF.FileFunction,Profile,NP*%
%FSLAX46Y46*%
G04 Gerber Fmt 4.6, Leading zero omitted, Abs format (unit mm)*
G04 Created by KiCad (PCBNEW (6.0.10-0)) date 2023-02-08 17:30:20*
%MOMM*%
%LPD*%
G01*
G04 APERTURE LIST*
%TA.AperFunction,Profile*%
%ADD10C,0.100000*%
%TD*%
%TA.AperFunction,Profile*%
%ADD11C,0.150000*%
%TD*%
G04 APERTURE END LIST*
D10*
X49784001Y-37134800D02*
G75*
G03*
X49784001Y-37134800I-396761J0D01*
G01*
X51562001Y-39776400D02*
G75*
G03*
X51562001Y-39776400I-396761J0D01*
G01*
X49784001Y-39776400D02*
G75*
G03*
X49784001Y-39776400I-396761J0D01*
G01*
X51562001Y-37134800D02*
G75*
G03*
X51562001Y-37134800I-396761J0D01*
G01*
X57140361Y-31902400D02*
G75*
G03*
X57140361Y-31902400I-396761J0D01*
G01*
X57140361Y-33680400D02*
G75*
G03*
X57140361Y-33680400I-396761J0D01*
G01*
X54498761Y-31902400D02*
G75*
G03*
X54498761Y-31902400I-396761J0D01*
G01*
X54498761Y-33680400D02*
G75*
G03*
X54498761Y-33680400I-396761J0D01*
G01*
X62169561Y-39573200D02*
G75*
G03*
X62169561Y-39573200I-396761J0D01*
G01*
X60391561Y-39573200D02*
G75*
G03*
X60391561Y-39573200I-396761J0D01*
G01*
X62169561Y-36931600D02*
G75*
G03*
X62169561Y-36931600I-396761J0D01*
G01*
X60391561Y-36931600D02*
G75*
G03*
X60391561Y-36931600I-396761J0D01*
G01*
X54803561Y-42214800D02*
G75*
G03*
X54803561Y-42214800I-396761J0D01*
G01*
X54803561Y-43992800D02*
G75*
G03*
X54803561Y-43992800I-396761J0D01*
G01*
X57445161Y-43992800D02*
G75*
G03*
X57445161Y-43992800I-396761J0D01*
G01*
X57445161Y-42214800D02*
G75*
G03*
X57445161Y-42214800I-396761J0D01*
G01*
X122105768Y-99314000D02*
G75*
G03*
X122105768Y-99314000I-287368J0D01*
G01*
X122105768Y-101041200D02*
G75*
G03*
X122105768Y-101041200I-287368J0D01*
G01*
X122105768Y-102802266D02*
G75*
G03*
X122105768Y-102802266I-287368J0D01*
G01*
X122105768Y-104563332D02*
G75*
G03*
X122105768Y-104563332I-287368J0D01*
G01*
X122105768Y-106324400D02*
G75*
G03*
X122105768Y-106324400I-287368J0D01*
G01*
X123883768Y-99314000D02*
G75*
G03*
X123883768Y-99314000I-287368J0D01*
G01*
X123883768Y-106324400D02*
G75*
G03*
X123883768Y-106324400I-287368J0D01*
G01*
X123883768Y-104563332D02*
G75*
G03*
X123883768Y-104563332I-287368J0D01*
G01*
X123883768Y-102802266D02*
G75*
G03*
X123883768Y-102802266I-287368J0D01*
G01*
X123883768Y-101041200D02*
G75*
G03*
X123883768Y-101041200I-287368J0D01*
G01*
D11*
X34072103Y-26452103D02*
X34072102Y-117892102D01*
X262672102Y-117892102D02*
X262672102Y-26452102D01*
X39152103Y-21372103D02*
G75*
G03*
X34072103Y-26452103I-3J-5079997D01*
G01*
X257592102Y-21372102D02*
X39152102Y-21372102D01*
X262672098Y-26452102D02*
G75*
G03*
X257592102Y-21372102I-5079998J2D01*
G01*
X257592102Y-122972102D02*
G75*
G03*
X262672102Y-117892102I-2J5080002D01*
G01*
X257592102Y-122972102D02*
X39152102Y-122972102D01*
X34072098Y-117892102D02*
G75*
G03*
X39152102Y-122972102I5080002J2D01*
G01*
M02*
