%TF.GenerationSoftware,KiCad,Pcbnew,(6.0.10-0)*%
%TF.CreationDate,2023-02-08T17:30:20+03:00*%
%TF.ProjectId,EEEE2046_PCB_Template,45454545-3230-4343-965f-5043425f5465,rev?*%
%TF.SameCoordinates,Original*%
%TF.FileFunction,Soldermask,Bot*%
%TF.FilePolarity,Negative*%
%FSLAX46Y46*%
G04 Gerber Fmt 4.6, Leading zero omitted, Abs format (unit mm)*
G04 Created by KiCad (PCBNEW (6.0.10-0)) date 2023-02-08 17:30:20*
%MOMM*%
%LPD*%
G01*
G04 APERTURE LIST*
%ADD10C,0.800000*%
%ADD11C,6.400000*%
%ADD12C,2.000000*%
%ADD13R,1.270000X2.540000*%
%ADD14R,2.600000X2.600000*%
%ADD15C,2.600000*%
%ADD16O,3.000000X2.500000*%
%ADD17R,2.400000X2.400000*%
%ADD18C,2.400000*%
%ADD19O,2.500000X3.000000*%
%ADD20C,1.700000*%
%ADD21O,2.000000X4.000000*%
%ADD22O,4.000000X2.000000*%
%ADD23C,1.600000*%
%ADD24R,1.600000X1.600000*%
%ADD25O,1.600000X1.600000*%
%ADD26R,5.080000X5.080000*%
%ADD27C,2.500000*%
%ADD28C,1.400000*%
%ADD29O,1.800000X3.000000*%
%ADD30O,2.400000X1.600000*%
%ADD31R,2.400000X1.600000*%
G04 APERTURE END LIST*
D10*
%TO.C,H2*%
X38544800Y-27686000D03*
X42641856Y-25988944D03*
X40944800Y-30086000D03*
D11*
X40944800Y-27686000D03*
D10*
X43344800Y-27686000D03*
X39247744Y-25988944D03*
X40944800Y-25286000D03*
X39247744Y-29383056D03*
X42641856Y-29383056D03*
%TD*%
%TO.C,H4*%
X40436800Y-114440000D03*
X40436800Y-119240000D03*
X38739744Y-115142944D03*
X38036800Y-116840000D03*
X42133856Y-115142944D03*
X38739744Y-118537056D03*
D11*
X40436800Y-116840000D03*
D10*
X42133856Y-118537056D03*
X42836800Y-116840000D03*
%TD*%
D12*
%TO.C,U15*%
X111963200Y-115341400D03*
D13*
X111963200Y-114071400D03*
D12*
X111963200Y-112801400D03*
D13*
X76403200Y-114071400D03*
D12*
X76403200Y-112801400D03*
X76403200Y-115341400D03*
D13*
X111963200Y-108991400D03*
D12*
X111963200Y-110261400D03*
X111963200Y-107721400D03*
X111963200Y-105181400D03*
X111963200Y-102641400D03*
D13*
X111963200Y-103911400D03*
D12*
X76403200Y-110261400D03*
X76403200Y-107721400D03*
D13*
X76403200Y-108991400D03*
D12*
X76403200Y-102641400D03*
X76403200Y-105181400D03*
D13*
X76403200Y-103911400D03*
%TD*%
D14*
%TO.C,U6*%
X60960000Y-43180000D03*
D15*
X60960000Y-32780000D03*
X50560000Y-32780000D03*
X50560000Y-43180000D03*
%TD*%
D16*
%TO.C,U17*%
X85430000Y-58029200D03*
X87716000Y-58029200D03*
X87716000Y-63109200D03*
X85430000Y-63109200D03*
%TD*%
D17*
%TO.C,U11*%
X73660000Y-43180000D03*
D18*
X73660000Y-35680000D03*
%TD*%
D19*
%TO.C,U31*%
X182575200Y-74558800D03*
X182575200Y-76844800D03*
X177495200Y-74558800D03*
X177495200Y-76844800D03*
%TD*%
D20*
%TO.C,U42*%
X132841200Y-111286800D03*
X132841200Y-115286800D03*
X139141200Y-121086800D03*
X139141200Y-111286800D03*
X139141200Y-115286800D03*
D21*
X130891200Y-119286800D03*
D20*
X132841200Y-121086800D03*
D22*
X135991200Y-114286800D03*
D21*
X141091200Y-119286800D03*
%TD*%
D17*
%TO.C,U12*%
X93980000Y-43180000D03*
D18*
X93980000Y-35680000D03*
%TD*%
D23*
%TO.C,U14*%
X118556400Y-112776000D03*
X119806400Y-112776000D03*
X123556400Y-112776000D03*
X122306400Y-112776000D03*
%TD*%
D19*
%TO.C,U33*%
X177088800Y-52085600D03*
X177088800Y-54371600D03*
X182168800Y-52085600D03*
X182168800Y-54371600D03*
%TD*%
D10*
%TO.C,H2*%
X253922102Y-27722102D03*
X258019158Y-26025046D03*
X256322102Y-30122102D03*
D11*
X256322102Y-27722102D03*
D10*
X258722102Y-27722102D03*
X254625046Y-26025046D03*
X256322102Y-25322102D03*
X254625046Y-29419158D03*
X258019158Y-29419158D03*
%TD*%
D24*
%TO.C,U36*%
X188772723Y-31394400D03*
X188101786Y-29794400D03*
D23*
X191943660Y-32994400D03*
X191272723Y-31394400D03*
%TD*%
%TO.C,U25*%
X70269200Y-103182800D03*
D25*
X60109200Y-103182800D03*
%TD*%
D10*
%TO.C,H4*%
X256322102Y-114222102D03*
X256322102Y-119022102D03*
X254625046Y-114925046D03*
X253922102Y-116622102D03*
X258019158Y-114925046D03*
X254625046Y-118319158D03*
D11*
X256322102Y-116622102D03*
D10*
X258019158Y-118319158D03*
X258722102Y-116622102D03*
%TD*%
D12*
%TO.C,U34*%
X253796800Y-83210400D03*
X253796800Y-85750400D03*
X251256800Y-42570400D03*
X253796800Y-42570400D03*
D26*
X252526800Y-84480400D03*
D12*
X251256800Y-83210400D03*
X253796800Y-45110400D03*
X251256800Y-45110400D03*
D26*
X252526800Y-43840400D03*
D12*
X251256800Y-85750400D03*
X200456800Y-45110400D03*
D26*
X201726800Y-43840400D03*
D12*
X200456800Y-42570400D03*
X202996800Y-42570400D03*
X202996800Y-45110400D03*
X202996800Y-83210400D03*
X202996800Y-85750400D03*
X200456800Y-83210400D03*
D26*
X201726800Y-84480400D03*
D12*
X200456800Y-85750400D03*
%TD*%
D24*
%TO.C,U21*%
X98628200Y-88036400D03*
D25*
X98628200Y-95656400D03*
%TD*%
D27*
%TO.C,U44*%
X219390600Y-27541600D03*
X214310600Y-27541600D03*
%TD*%
D28*
%TO.C,U7*%
X60228800Y-83769200D03*
X57688800Y-83769200D03*
%TD*%
D23*
%TO.C,U28*%
X60045600Y-95504000D03*
D25*
X70205600Y-95504000D03*
%TD*%
D23*
%TO.C,U39*%
X149555200Y-105463400D03*
X148305200Y-105463400D03*
X152055200Y-105463400D03*
X153305200Y-105463400D03*
%TD*%
%TO.C,U18*%
X92913200Y-87822400D03*
X92913200Y-89072400D03*
X92913200Y-91572400D03*
X92913200Y-92822400D03*
%TD*%
%TO.C,U37*%
X137343200Y-96418400D03*
X138593200Y-96418400D03*
X133593200Y-96418400D03*
X134843200Y-96418400D03*
%TD*%
D12*
%TO.C,U26*%
X111125000Y-33020000D03*
X108585000Y-35560000D03*
X108585000Y-33020000D03*
D26*
X109855000Y-34290000D03*
D12*
X111125000Y-35560000D03*
D26*
X109855000Y-74930000D03*
D12*
X111125000Y-73660000D03*
X108585000Y-76200000D03*
X108585000Y-73660000D03*
X111125000Y-76200000D03*
X161925000Y-35560000D03*
D26*
X160655000Y-34290000D03*
D12*
X159385000Y-35560000D03*
X161925000Y-33020000D03*
X159385000Y-33020000D03*
D26*
X160655000Y-74930000D03*
D12*
X159385000Y-73660000D03*
X161925000Y-76200000D03*
X161925000Y-73660000D03*
X159385000Y-76200000D03*
%TD*%
D28*
%TO.C,U10*%
X161899600Y-86207600D03*
X164439600Y-86207600D03*
%TD*%
D23*
%TO.C,U19*%
X60096400Y-109880400D03*
X58846400Y-109880400D03*
X62596400Y-109880400D03*
X63846400Y-109880400D03*
%TD*%
D28*
%TO.C,U3*%
X87610000Y-83769200D03*
X85070000Y-83769200D03*
%TD*%
D24*
%TO.C,U38*%
X201472723Y-31394400D03*
X200801786Y-29794400D03*
D23*
X203972723Y-31394400D03*
X204643660Y-32994400D03*
%TD*%
D24*
%TO.C,U40*%
X176072723Y-31394400D03*
X175401786Y-29794400D03*
D23*
X179243660Y-32994400D03*
X178572723Y-31394400D03*
%TD*%
D29*
%TO.C,U16*%
X61493400Y-70535800D03*
X61493400Y-73075800D03*
X58953400Y-70535800D03*
X58953400Y-73075800D03*
X56413400Y-73075800D03*
X56413400Y-70535800D03*
%TD*%
D23*
%TO.C,U24*%
X113233200Y-88036400D03*
D25*
X103073200Y-88036400D03*
%TD*%
D24*
%TO.C,U22*%
X52710400Y-103124000D03*
D25*
X52710400Y-95504000D03*
%TD*%
D23*
%TO.C,U27*%
X103073200Y-95656400D03*
D25*
X113233200Y-95656400D03*
%TD*%
D27*
%TO.C,U45*%
X235519600Y-27541600D03*
X230439600Y-27541600D03*
%TD*%
D28*
%TO.C,U9*%
X55453600Y-50520600D03*
X52913600Y-50520600D03*
%TD*%
D27*
%TO.C,U41*%
X148325200Y-116603400D03*
X153405200Y-116603400D03*
%TD*%
D16*
%TO.C,U23*%
X56982000Y-58537200D03*
X59268000Y-58537200D03*
X59268000Y-63617200D03*
X56982000Y-63617200D03*
%TD*%
D30*
%TO.C,U5*%
X118760400Y-106924000D03*
X118760400Y-104384000D03*
X118760400Y-101844000D03*
X118760400Y-99304000D03*
X126380400Y-99304000D03*
X126380400Y-101844000D03*
X126380400Y-104384000D03*
D31*
X126380400Y-106924000D03*
%TD*%
D28*
%TO.C,U1*%
X122295600Y-119227600D03*
X124835600Y-119227600D03*
%TD*%
D27*
%TO.C,U43*%
X41664000Y-38394000D03*
X41664000Y-43474000D03*
%TD*%
D29*
%TO.C,U20*%
X89306400Y-70408800D03*
X89306400Y-72948800D03*
X86766400Y-72948800D03*
X86766400Y-70408800D03*
X84226400Y-70408800D03*
X84226400Y-72948800D03*
%TD*%
M02*
