M48
; DRILL file {KiCad (6.0.10-0)} date Wednesday, 08 February 2023 at 17:30:51
; FORMAT={-:-/ absolute / inch / decimal}
; #@! TF.CreationDate,2023-02-08T17:30:51+03:00
; #@! TF.GenerationSoftware,Kicad,Pcbnew,(6.0.10-0)
; #@! TF.FileFunction,Plated,1,2,PTH
FMAT,2
INCH
; #@! TA.AperFunction,Plated,PTH,ViaDrill
T1C0.0157
; #@! TA.AperFunction,Plated,PTH,ComponentDrill
T2C0.0197
; #@! TA.AperFunction,Plated,PTH,ComponentDrill
T3C0.0315
; #@! TA.AperFunction,Plated,PTH,ComponentDrill
T4C0.0394
; #@! TA.AperFunction,Plated,PTH,ComponentDrill
T5C0.0472
; #@! TA.AperFunction,Plated,PTH,ComponentDrill
T6C0.0512
; #@! TA.AperFunction,Plated,PTH,ViaDrill
T7C0.1181
; #@! TA.AperFunction,Plated,PTH,ComponentDrill
T8C0.1260
%
G90
G05
T1
X2.094Y-1.394
T2
X1.4975Y-4.6
X1.5175Y-1.09
X1.5252Y-4.5332
X1.5252Y-4.6668
X1.5452Y-1.0232
X1.5452Y-1.1568
X1.592Y-4.5055
X1.592Y-4.6945
X1.612Y-0.9955
X1.612Y-1.1845
X1.6588Y-4.5332
X1.6588Y-4.6668
X1.6788Y-1.0232
X1.6788Y-1.1568
X1.6865Y-4.6
X1.7065Y-1.09
X9.9969Y-1.0914
X9.9969Y-4.5914
X10.0246Y-1.0246
X10.0246Y-1.1582
X10.0246Y-4.5246
X10.0246Y-4.6582
X10.0914Y-0.9969
X10.0914Y-1.1859
X10.0914Y-4.4969
X10.0914Y-4.6859
X10.1582Y-1.0246
X10.1582Y-1.1582
X10.1582Y-4.5246
X10.1582Y-4.6582
X10.1859Y-1.0914
X10.1859Y-4.5914
T3
X2.0752Y-3.76
X2.0752Y-4.06
X2.0832Y-1.989
X2.1832Y-1.989
X2.2712Y-3.298
X2.3168Y-4.326
X2.364Y-3.76
X2.366Y-4.326
X2.3665Y-4.0623
X2.3712Y-3.298
X2.4644Y-4.326
X2.5136Y-4.326
X2.764Y-3.76
X2.7665Y-4.0623
X3.3492Y-3.298
X3.4492Y-3.298
X3.658Y-3.4576
X3.658Y-3.5068
X3.658Y-3.6052
X3.658Y-3.6544
X3.883Y-3.466
X3.883Y-3.766
X4.058Y-3.466
X4.058Y-3.766
X4.458Y-3.466
X4.458Y-3.766
X4.6676Y-4.44
X4.6756Y-3.9096
X4.6756Y-4.0096
X4.6756Y-4.1096
X4.6756Y-4.2096
X4.7168Y-4.44
X4.8148Y-4.694
X4.8152Y-4.44
X4.8644Y-4.44
X4.9148Y-4.694
X4.9756Y-3.9096
X4.9756Y-4.0096
X4.9756Y-4.1096
X4.9756Y-4.2096
X5.2596Y-3.796
X5.3088Y-3.796
X5.4072Y-3.796
X5.4564Y-3.796
X5.8388Y-4.1521
X5.888Y-4.1521
X5.9864Y-4.1521
X6.0356Y-4.1521
X6.374Y-3.394
X6.474Y-3.394
X6.9056Y-1.173
X6.932Y-1.236
X7.0304Y-1.236
X7.0568Y-1.299
X7.4056Y-1.173
X7.432Y-1.236
X7.5304Y-1.236
X7.5568Y-1.299
X7.9056Y-1.173
X7.932Y-1.236
X8.0304Y-1.236
X8.0568Y-1.299
T4
X1.6403Y-1.5116
X1.6403Y-1.7116
X2.221Y-2.777
X2.221Y-2.877
X2.2434Y-2.3046
X2.2434Y-2.5046
X2.321Y-2.777
X2.321Y-2.877
X2.3334Y-2.3046
X2.3334Y-2.5046
X2.421Y-2.777
X2.421Y-2.877
X3.008Y-4.041
X3.008Y-4.141
X3.008Y-4.241
X3.008Y-4.341
X3.008Y-4.441
X3.008Y-4.541
X3.316Y-2.772
X3.316Y-2.872
X3.3634Y-2.2846
X3.3634Y-2.4846
X3.416Y-2.772
X3.416Y-2.872
X3.4534Y-2.2846
X3.4534Y-2.4846
X3.516Y-2.772
X3.516Y-2.872
X4.275Y-1.3
X4.275Y-1.4
X4.275Y-2.9
X4.275Y-3.0
X4.375Y-1.3
X4.375Y-1.4
X4.375Y-2.9
X4.375Y-3.0
X4.408Y-4.041
X4.408Y-4.141
X4.408Y-4.241
X4.408Y-4.341
X4.408Y-4.441
X4.408Y-4.541
X5.8396Y-4.5907
X6.0396Y-4.5907
X6.275Y-1.3
X6.275Y-1.4
X6.275Y-2.9
X6.275Y-3.0
X6.375Y-1.3
X6.375Y-1.4
X6.375Y-2.9
X6.375Y-3.0
X6.972Y-2.0506
X6.972Y-2.1406
X6.988Y-2.9354
X6.988Y-3.0254
X7.172Y-2.0506
X7.172Y-2.1406
X7.188Y-2.9354
X7.188Y-3.0254
X7.892Y-1.676
X7.892Y-1.776
X7.892Y-3.276
X7.892Y-3.376
X7.992Y-1.676
X7.992Y-1.776
X7.992Y-3.276
X7.992Y-3.376
X8.4374Y-1.0843
X8.6374Y-1.0843
X9.0724Y-1.0843
X9.2724Y-1.0843
X9.892Y-1.676
X9.892Y-1.776
X9.892Y-3.276
X9.892Y-3.376
X9.992Y-1.676
X9.992Y-1.776
X9.992Y-3.276
X9.992Y-3.376
T5
X2.9Y-1.4047
X2.9Y-1.7
X3.7Y-1.4047
X3.7Y-1.7
T6
X1.9906Y-1.2906
X1.9906Y-1.7
X2.4Y-1.2906
X2.4Y-1.7
T7
X7.174Y-2.514
T8
X1.592Y-4.6
X1.612Y-1.09
X10.0914Y-1.0914
X10.0914Y-4.5914
T5
G00X5.1532Y-4.6648
M15
G01X5.1532Y-4.7278
M16
G05
G00X5.3225Y-4.4995
M15
G01X5.3855Y-4.4995
M16
G05
G00X5.5548Y-4.6648
M15
G01X5.5548Y-4.7278
M16
G05
T0
M30
